<svg xmlns="http://www.w3.org/2000/svg" width="85" height="65" viewBox="0 0 85 65">
<path d="M40 0c-5.523 0-10 4.477-10 10v23c0 5.523 4.477 10 10 10h1v8l7.111-8H75c5.523 0 10-4.477 10-10V10c0-5.523-4.477-10-10-10H40Zm38 7H37v29h41V7Z" fill="#5188C0"/>
<path d="M32.29 45.112v8.712H4.71V32.216H27V27H6.727C3.012 27 0 30.336 0 34.451v17.137c0 4.115 3.012 7.451 6.727 7.451h18.09L29.6 65v-5.96h.673c3.715 0 6.727-3.337 6.727-7.452v-4.665l-4.71-1.811ZM68.69 45v10.224H49.31V50.28L46 51.308v2.648c0 2.335 2.117 4.228 4.727 4.228h.473v3.384l3.362-3.384h12.71c2.611 0 4.728-1.893 4.728-4.228V45h-3.31Z" fill="#5188C0"/>
</svg>
